<svg width="166" height="23" viewBox="0 0 166 23" fill="none" xmlns="http://www.w3.org/2000/svg">
<path d="M0.823242 2.64729C0.823242 1.2359 1.97735 0.0917358 3.40101 0.0917358H8.40554C11.4163 0.0917358 13.9991 1.1499 16.154 3.26623C18.3088 5.38253 19.3863 7.90315 19.3863 10.8281C19.3863 13.753 18.3088 16.2736 16.154 18.3899C13.9991 20.5062 11.4163 21.5644 8.40554 21.5644H3.40101C1.97735 21.5644 0.823242 20.4202 0.823242 19.0088V2.64729ZM8.40554 3.1614H4.22167V18.4947H8.40554C10.5101 18.4947 12.2974 17.756 13.7675 16.2786C15.2377 14.7912 15.9727 12.9743 15.9727 10.8281C15.9727 8.68181 15.2377 6.86994 13.7675 5.39252C12.2974 3.90511 10.5101 3.1614 8.40554 3.1614Z" fill="white"/>
<path d="M36.9971 15.2753H25.3972C25.5583 16.3135 26.0717 17.2119 26.9379 17.9706C27.8138 18.7293 28.8511 19.1086 30.0492 19.1086C30.9151 19.1086 31.7207 18.914 32.4659 18.5247C33.2212 18.1353 33.7548 17.756 34.067 17.3866C34.3175 17.0821 34.7787 17.059 35.0589 17.3369L36.2253 18.4932C36.4081 18.6745 36.4264 18.9598 36.2571 19.1536C36.1362 19.2933 35.8694 19.5379 35.4567 19.8873C35.0437 20.2267 34.6057 20.5312 34.1425 20.8007C33.6793 21.0603 33.075 21.3048 32.3301 21.5344C31.5949 21.754 30.8347 21.8639 30.0492 21.8639C27.9448 21.8639 26.1272 21.1002 24.5967 19.5728C23.0762 18.0355 22.3159 16.1937 22.3159 14.0475C22.3159 11.981 23.056 10.2141 24.5362 8.74667C26.0266 7.26923 27.8089 6.53052 29.8832 6.53052C31.9674 6.53052 33.6994 7.21932 35.079 8.59691C36.4684 9.96455 37.1634 11.6815 37.1634 13.748L36.9971 15.2753ZM29.8832 9.15096C28.7655 9.15096 27.8239 9.4804 27.0585 10.1392C26.3035 10.7881 25.7949 11.6316 25.5331 12.6698H34.1273C33.9461 11.6316 33.4779 10.7881 32.7227 10.1392C31.9674 9.4804 31.0211 9.15096 29.8832 9.15096Z" fill="white"/>
<path d="M49.7904 8.31243C49.901 8.43898 49.8943 8.62878 49.7747 8.74721L48.3257 10.1838C48.1337 10.3742 47.82 10.3765 47.6156 10.1991C47.4645 10.0494 47.1423 9.86473 46.6489 9.6451C46.1656 9.41551 45.6771 9.30069 45.1837 9.30069C44.5191 9.30069 43.9904 9.45543 43.5978 9.76488C43.215 10.0644 43.0238 10.4187 43.0238 10.828C43.0238 11.2573 43.2101 11.6167 43.5826 11.9062C43.9551 12.1957 44.4235 12.4153 44.9873 12.565C45.5513 12.7148 46.1555 12.9044 46.7999 13.134C47.4544 13.3536 48.0636 13.6032 48.6273 13.8827C49.2014 14.1623 49.6747 14.5915 50.0472 15.1705C50.4197 15.7495 50.606 16.4483 50.606 17.2668C50.606 18.5347 50.0874 19.6177 49.0503 20.5162C48.0234 21.4146 46.6839 21.8639 45.0326 21.8639C44.3078 21.8639 43.6128 21.774 42.9482 21.5943C42.2937 21.4146 41.755 21.2 41.3322 20.9504C40.9092 20.7009 40.5367 20.4513 40.2145 20.2017C39.9023 19.9422 39.6757 19.7226 39.5347 19.5429C39.4056 19.3806 39.4193 19.1482 39.5667 19.0021L40.8314 17.7484C41.0855 17.4963 41.5137 17.5266 41.755 17.7909C41.9563 18.0006 42.3793 18.2751 43.0238 18.6145C43.6783 18.9439 44.348 19.1086 45.0326 19.1086C45.8583 19.1086 46.4777 18.9439 46.8904 18.6145C47.3034 18.2751 47.5096 17.8259 47.5096 17.2668C47.5096 16.8376 47.3235 16.4832 46.9507 16.2037C46.5783 15.9142 46.1101 15.6946 45.5461 15.5448C44.9824 15.3851 44.373 15.1954 43.7185 14.9758C43.074 14.7462 42.4649 14.4967 41.8911 14.2271C41.3271 13.9476 40.8589 13.5184 40.4862 12.9394C40.1137 12.3504 39.9273 11.6466 39.9273 10.828C39.9273 9.69999 40.4259 8.70174 41.4227 7.83326C42.4296 6.96476 43.6834 6.53052 45.1837 6.53052C45.7779 6.53052 46.3517 6.60039 46.9056 6.74015C47.4694 6.86992 47.9277 7.03465 48.2801 7.23429C48.6325 7.42397 48.9395 7.62361 49.2014 7.83326C49.4734 8.0329 49.6695 8.19263 49.7904 8.31243Z" fill="white"/>
<path d="M65.907 20.0295C65.907 20.8772 65.21 21.5644 64.3549 21.5644C63.504 21.5644 62.8106 20.8806 62.8106 20.037C62.7703 20.077 62.6997 20.1418 62.5992 20.2317C62.5084 20.3215 62.3172 20.4713 62.0251 20.6809C61.7431 20.8806 61.4361 21.0652 61.1038 21.235C60.7715 21.3947 60.3537 21.5394 59.8502 21.6692C59.3465 21.799 58.8382 21.8639 58.3247 21.8639C56.8141 21.8639 55.5606 21.4296 54.5637 20.5611C53.5669 19.6926 53.0684 18.6994 53.0684 17.5813C53.0684 16.3734 53.4509 15.3602 54.2162 14.5416C54.9916 13.723 56.0488 13.2039 57.3882 12.9843L62.8106 12.0559C62.8106 11.2773 62.5185 10.6234 61.9344 10.0943C61.3606 9.56524 60.6205 9.30069 59.7141 9.30069C58.9287 9.30069 58.2139 9.46542 57.5694 9.79483C56.935 10.1143 56.4971 10.4387 56.2553 10.7681C56.039 11.0461 55.6258 11.0724 55.3755 10.8242L54.1121 9.57191C53.9554 9.4163 53.9381 9.1703 54.0804 9.00123C54.191 8.87146 54.4276 8.65183 54.7903 8.34236C55.1628 8.02291 55.5554 7.73843 55.9684 7.48885C56.3811 7.23928 56.925 7.01968 57.5996 6.83C58.2842 6.63034 58.9893 6.53052 59.7141 6.53052C61.5266 6.53052 63.0119 7.06458 64.1698 8.13272C65.328 9.1909 65.907 10.4986 65.907 12.0559V20.0295ZM58.7928 19.1086C60.0516 19.1086 61.0332 18.7393 61.7382 18.0006C62.453 17.2519 62.8106 16.1887 62.8106 14.8111V14.5116L58.0074 15.2753C57.4537 15.3751 57.0054 15.5998 56.6631 15.9491C56.3207 16.2985 56.1496 16.7378 56.1496 17.2668C56.1496 17.756 56.3862 18.1853 56.8595 18.5546C57.3428 18.924 57.9873 19.1086 58.7928 19.1086Z" fill="white"/>
<path d="M71.7933 6.84498C72.644 6.84498 73.3376 7.52879 73.3376 8.37231L73.5338 8.17765C73.6245 8.0878 73.8158 7.94305 74.1079 7.74341C74.3999 7.53378 74.707 7.34909 75.0292 7.18937C75.3614 7.01968 75.7793 6.86992 76.283 6.74015C76.7965 6.60039 77.31 6.53052 77.8235 6.53052C79.6158 6.53052 81.0658 7.11451 82.1735 8.28248C83.2912 9.45044 83.8501 11.0177 83.8501 12.9843V20.0296C83.8501 20.8772 83.1569 21.5644 82.3019 21.5644C81.4468 21.5644 80.7536 20.8772 80.7536 20.0296V12.9843C80.7536 11.9261 80.4113 11.0477 79.7267 10.3489C79.0521 9.65008 78.2112 9.30069 77.2043 9.30069C76.026 9.30069 75.0846 9.68004 74.3798 10.4387C73.6849 11.1874 73.3376 12.2406 73.3376 13.5982V20.0296C73.3376 20.8772 72.6445 21.5644 71.7894 21.5644C70.9344 21.5644 70.2412 20.8772 70.2412 20.0296V8.37979C70.2412 7.53214 70.9382 6.84498 71.7933 6.84498Z" fill="white"/>
<path d="M90.0434 5.00318V3.31113C90.0434 2.55031 90.6657 1.93353 91.4331 1.93353C92.2005 1.93353 92.8228 2.55031 92.8228 3.31113V6.845H94.5295C95.2969 6.845 95.919 7.46176 95.919 8.2226C95.919 8.98344 95.2969 9.60019 94.5295 9.60019H92.8228V17.2369C92.8228 17.786 92.9988 18.2352 93.3512 18.5846C93.7039 18.934 94.1467 19.1087 94.6806 19.1087C94.9121 19.1087 95.1539 19.0837 95.4055 19.0338C95.6674 18.9839 95.8687 18.929 96.0097 18.8691C96.1241 18.8388 96.2363 18.9243 96.2363 19.0416V20.5792C96.2363 21.1669 95.8555 21.6998 95.2688 21.7838C94.8958 21.8372 94.4934 21.8639 94.0612 21.8639C91.1712 21.8639 89.7313 20.3315 89.7416 17.2669V9.60019H88.3367C87.5693 9.60019 86.9473 8.98344 86.9473 8.2226C86.9473 7.46176 87.5693 6.845 88.3367 6.845H88.503C89.5299 6.845 90.0434 6.23105 90.0434 5.00318Z" fill="white"/>
<path d="M109.376 17.6861C110.293 16.7378 110.751 15.5798 110.751 14.2122C110.751 12.8346 110.293 11.6716 109.376 10.7232C108.46 9.77487 107.372 9.30069 106.114 9.30069C104.855 9.30069 103.763 9.77487 102.836 10.7232C101.92 11.6716 101.462 12.8346 101.462 14.2122C101.462 15.5798 101.92 16.7378 102.836 17.6861C103.763 18.6345 104.855 19.1086 106.114 19.1086C107.372 19.1086 108.46 18.6345 109.376 17.6861ZM100.676 19.5878C99.1457 18.0605 98.3804 16.2686 98.3804 14.2122C98.3804 12.1458 99.1457 10.3489 100.676 8.82152C102.217 7.29419 104.029 6.53052 106.114 6.53052C108.198 6.53052 110.006 7.29419 111.536 8.82152C113.077 10.3489 113.847 12.1458 113.847 14.2122C113.847 16.2686 113.077 18.0605 111.536 19.5878C110.006 21.1052 108.198 21.8639 106.114 21.8639C104.029 21.8639 102.217 21.1052 100.676 19.5878Z" fill="white"/>
<path d="M130.022 16.1973C130.022 15.8965 129.927 15.6458 129.735 15.4453C129.544 15.2402 129.296 15.0807 128.99 14.9668C128.689 14.8483 128.354 14.7435 127.985 14.6523C127.616 14.5566 127.247 14.4404 126.878 14.3037C126.509 14.167 126.172 14.0029 125.866 13.8115C125.565 13.6201 125.319 13.349 125.128 12.998C124.937 12.6426 124.841 12.2165 124.841 11.7197C124.841 10.9632 125.13 10.332 125.709 9.82617C126.288 9.31576 127.072 9.06055 128.061 9.06055C128.425 9.06055 128.774 9.10612 129.106 9.19727C129.444 9.28385 129.722 9.38867 129.94 9.51172C130.164 9.63021 130.357 9.75098 130.521 9.87402C130.69 9.99251 130.813 10.0951 130.891 10.1816L131 10.3184L130.022 11.3027C130.004 11.2845 129.977 11.2549 129.94 11.2139C129.909 11.1683 129.831 11.0999 129.708 11.0088C129.59 10.9131 129.46 10.8288 129.318 10.7559C129.182 10.6784 128.999 10.61 128.771 10.5508C128.548 10.4915 128.311 10.4619 128.061 10.4619C127.555 10.4619 127.147 10.5872 126.837 10.8379C126.532 11.0885 126.379 11.3825 126.379 11.7197C126.379 12.0205 126.475 12.2734 126.666 12.4785C126.857 12.6836 127.104 12.8454 127.404 12.9639C127.71 13.0778 128.047 13.1826 128.416 13.2783C128.785 13.3695 129.154 13.4834 129.523 13.6201C129.893 13.7523 130.228 13.9141 130.528 14.1055C130.834 14.2969 131.082 14.5703 131.273 14.9258C131.465 15.2812 131.561 15.7051 131.561 16.1973C131.561 17.0632 131.251 17.7695 130.631 18.3164C130.011 18.8633 129.154 19.1367 128.061 19.1367C127.614 19.1367 127.188 19.0843 126.782 18.9795C126.381 18.8701 126.051 18.7425 125.791 18.5967C125.531 18.4463 125.306 18.2959 125.114 18.1455C124.923 17.9951 124.784 17.8698 124.697 17.7695L124.561 17.5986L125.538 16.6211C125.556 16.6484 125.586 16.6895 125.627 16.7441C125.673 16.7943 125.771 16.8854 125.921 17.0176C126.076 17.1452 126.242 17.2591 126.42 17.3594C126.598 17.4551 126.832 17.5439 127.124 17.626C127.42 17.7035 127.732 17.7422 128.061 17.7422C128.667 17.7422 129.145 17.5941 129.496 17.2979C129.847 17.0016 130.022 16.6348 130.022 16.1973ZM134.008 11.4395V10.0381H135.266V12.2803H136.667V13.5381H135.266V17.0244C135.266 17.2751 135.345 17.4801 135.505 17.6396C135.664 17.7992 135.865 17.8789 136.106 17.8789C136.211 17.8789 136.321 17.8675 136.435 17.8447C136.553 17.8219 136.644 17.7969 136.708 17.7695L136.811 17.7422V19C136.533 19.0911 136.204 19.1367 135.826 19.1367C134.518 19.1367 133.867 18.4372 133.871 17.0381V13.5381H132.606V12.2803H133.311C133.775 12.2803 134.008 12 134.008 11.4395ZM143.243 19V18.3027L143.154 18.3916C143.113 18.4326 143.027 18.501 142.895 18.5967C142.767 18.6878 142.628 18.7721 142.478 18.8496C142.327 18.9225 142.138 18.9886 141.91 19.0479C141.682 19.1071 141.45 19.1367 141.213 19.1367C140.402 19.1367 139.743 18.8724 139.237 18.3438C138.736 17.8105 138.485 17.0951 138.485 16.1973V12.2803H139.887V16.1973C139.887 16.6803 140.039 17.0814 140.345 17.4004C140.655 17.7194 141.037 17.8789 141.493 17.8789C142.026 17.8789 142.45 17.708 142.765 17.3662C143.084 17.0199 143.243 16.5368 143.243 15.917V12.2803H144.645V19H143.243ZM149.546 12.1367C149.797 12.1367 150.04 12.1686 150.277 12.2324C150.519 12.2917 150.722 12.3669 150.886 12.458C151.054 12.5446 151.205 12.6357 151.337 12.7314C151.469 12.8226 151.562 12.8955 151.617 12.9502L151.713 13.0527V9.19727H153.114V19H151.713V18.2275C151.649 18.2913 151.558 18.3757 151.439 18.4805C151.326 18.5853 151.079 18.722 150.701 18.8906C150.323 19.0547 149.938 19.1367 149.546 19.1367C148.657 19.1367 147.887 18.7972 147.235 18.1182C146.584 17.4346 146.258 16.6074 146.258 15.6367C146.258 14.666 146.584 13.8411 147.235 13.1621C147.887 12.4785 148.657 12.1367 149.546 12.1367ZM148.268 17.2227C148.682 17.6602 149.154 17.8789 149.683 17.8789C150.216 17.8789 150.688 17.6602 151.098 17.2227C151.508 16.7852 151.713 16.2588 151.713 15.6436C151.713 15.0238 151.508 14.4951 151.098 14.0576C150.688 13.6201 150.216 13.4014 149.683 13.4014C149.154 13.4014 148.682 13.6201 148.268 14.0576C147.857 14.4951 147.652 15.0238 147.652 15.6436C147.652 16.2588 147.857 16.7852 148.268 17.2227ZM156.689 12.2803V19H155.288V12.2803H156.689ZM156.594 9.58008C156.753 9.73958 156.833 9.9401 156.833 10.1816C156.833 10.4232 156.753 10.6237 156.594 10.7832C156.434 10.9427 156.234 11.0225 155.992 11.0225C155.751 11.0225 155.55 10.9427 155.391 10.7832C155.231 10.6237 155.151 10.4232 155.151 10.1816C155.151 9.9401 155.231 9.73958 155.391 9.58008C155.55 9.42057 155.751 9.34082 155.992 9.34082C156.234 9.34082 156.434 9.42057 156.594 9.58008ZM163.279 17.2295C163.694 16.7965 163.901 16.2679 163.901 15.6436C163.901 15.0146 163.694 14.4837 163.279 14.0508C162.865 13.6178 162.372 13.4014 161.803 13.4014C161.233 13.4014 160.739 13.6178 160.319 14.0508C159.905 14.4837 159.697 15.0146 159.697 15.6436C159.697 16.2679 159.905 16.7965 160.319 17.2295C160.739 17.6624 161.233 17.8789 161.803 17.8789C162.372 17.8789 162.865 17.6624 163.279 17.2295ZM159.342 18.0977C158.649 17.4004 158.303 16.5824 158.303 15.6436C158.303 14.7002 158.649 13.8799 159.342 13.1826C160.039 12.4854 160.859 12.1367 161.803 12.1367C162.746 12.1367 163.564 12.4854 164.257 13.1826C164.954 13.8799 165.303 14.7002 165.303 15.6436C165.303 16.5824 164.954 17.4004 164.257 18.0977C163.564 18.7904 162.746 19.1367 161.803 19.1367C160.859 19.1367 160.039 18.7904 159.342 18.0977Z" fill="url(#paint0_linear)"/>
<defs>
<linearGradient id="paint0_linear" x1="124" y1="13.5" x2="165.229" y2="19.1368" gradientUnits="userSpaceOnUse">
<stop stop-color="#4271FF"/>
<stop offset="1" stop-color="#5165D7" stop-opacity="0.58"/>
</linearGradient>
</defs>
</svg>